# Blender 3.6.5
# www.blender.org
mtllib Sketchfab_2023.mtl
o SM_post_it_notes.003
v 0.175592 -0.014059 0.036170
v 0.247789 0.000799 0.036170
v 0.191406 0.007036 -0.027469
v 0.251592 -0.009475 -0.039830
v 0.188258 -0.014059 0.036170
v 0.200925 -0.014059 0.036170
v 0.213592 -0.014059 0.036170
v 0.226258 -0.014059 0.036170
v 0.237795 -0.007974 0.036170
v 0.238925 -0.012267 -0.039830
v 0.226258 -0.011856 -0.039830
v 0.213592 -0.008423 -0.039830
v 0.200925 -0.009967 -0.039830
v 0.192783 -0.002153 -0.038876
v 0.179734 -0.003238 -0.024630
v 0.175592 -0.013766 -0.009430
v 0.175592 -0.014059 0.005770
v 0.175592 -0.014059 0.020970
v 0.251099 -0.011161 0.020970
v 0.251592 -0.014059 0.005770
v 0.251592 -0.014059 -0.009430
v 0.251592 -0.012999 -0.024630
v 0.188258 -0.014059 0.020970
v 0.188258 -0.014059 0.005770
v 0.188258 -0.014059 -0.009430
v 0.188258 -0.011992 -0.024630
v 0.200925 -0.014059 0.020970
v 0.200925 -0.014059 0.005770
v 0.200925 -0.014059 -0.009430
v 0.200925 -0.013887 -0.024630
v 0.213592 -0.014059 0.020970
v 0.213592 -0.014059 0.005770
v 0.213592 -0.014059 -0.009430
v 0.213592 -0.012755 -0.024630
v 0.226258 -0.014059 0.020970
v 0.226258 -0.014059 0.005770
v 0.226258 -0.014059 -0.009430
v 0.226258 -0.013887 -0.024630
v 0.238925 -0.013651 0.020970
v 0.238925 -0.014059 0.005770
v 0.238925 -0.014059 -0.009430
v 0.238925 -0.013919 -0.024630
v 0.192095 0.003111 -0.034118
v 0.181925 -0.014059 0.036170
v 0.181925 -0.014059 0.020970
v 0.181925 -0.014059 0.005770
v 0.181925 -0.013912 -0.009430
v 0.183996 -0.007615 -0.024630
v 0.251592 -0.011237 -0.032230
v 0.190521 -0.007073 -0.031753
v 0.200925 -0.011927 -0.032230
v 0.213592 -0.010589 -0.032230
v 0.226258 -0.012872 -0.032230
v 0.238925 -0.013093 -0.032230
v 0.185570 0.002545 -0.027513
v 0.188045 -0.002236 -0.029652
vn -0.0628 0.9876 0.1437
vn -0.1436 0.9756 0.1661
vn -0.1780 0.9701 0.1651
vn -0.0777 0.9866 0.1436
vn 0.7273 0.0281 0.6857
vn 0.6479 0.5314 0.5458
vn 0.7828 0.3893 0.4854
vn 0.8056 -0.2098 0.5541
vn 0.1515 0.9195 0.3627
vn 0.2326 0.9007 0.3670
vn 0.0369 0.9717 0.2335
vn 0.0519 0.9709 0.2338
vn 0.0954 0.9822 0.1617
vn 0.1221 0.9793 0.1615
vn -0.1289 0.9871 -0.0945
vn -0.3352 0.8681 -0.3660
vn -0.1959 0.9579 -0.2101
vn -0.0683 0.9964 -0.0505
vn -0.0289 0.9991 -0.0307
vn -0.0040 1.0000 -0.0034
vn -0.0088 0.9999 0.0124
vn 0.0115 0.9998 0.0147
vn -0.0331 0.9959 0.0843
vn 0.0467 0.9943 0.0957
vn -0.0000 1.0000 -0.0000
vn -0.0000 0.9997 0.0242
vn 0.0094 0.9898 0.1423
vn 0.0075 0.9995 0.0305
vn 0.0495 0.9766 0.2092
vn 0.0029 1.0000 0.0012
vn 0.1182 0.9890 0.0885
vn 0.3679 0.8517 0.3732
vn 0.0058 1.0000 0.0048
vn 0.1923 0.9581 0.2125
vn 0.5138 0.5937 0.6194
vn -0.3913 0.7701 -0.5039
vn -0.2528 0.9145 -0.3158
vn -0.0492 0.9973 -0.0542
vn -0.0182 0.9996 0.0197
vn -0.0723 0.9920 0.1039
vn 0.1721 0.9511 0.2566
vn 0.4552 0.4845 0.7470
vn 0.0058 1.0000 0.0072
vn 0.6227 -0.1474 0.7685
vn 0.6712 -0.3914 0.6295
vt 0.057703 0.313787
vt 0.002835 0.314465
vt 0.001953 0.347901
vt 0.057566 0.346524
vt 0.297494 0.324270
vt 0.271829 0.318962
vt 0.268169 0.357407
vt 0.297448 0.358595
vt 0.221833 0.314822
vt 0.221354 0.348180
vt 0.167186 0.316156
vt 0.167424 0.349875
vt 0.112012 0.314161
vt 0.111718 0.346919
vt 0.112569 0.020829
vt 0.057101 0.016212
vt 0.058384 0.085608
vt 0.112522 0.085740
vt 0.058050 0.150728
vt 0.112433 0.150824
vt 0.058071 0.215955
vt 0.112419 0.216058
vt 0.057905 0.281061
vt 0.112189 0.281310
vt 0.166609 0.020838
vt 0.166670 0.085739
vt 0.166764 0.150817
vt 0.166915 0.216150
vt 0.167040 0.282015
vt 0.220625 0.020754
vt 0.220796 0.085616
vt 0.221055 0.150633
vt 0.221430 0.215863
vt 0.221926 0.281145
vt 0.274613 0.020588
vt 0.274860 0.085385
vt 0.275265 0.150300
vt 0.275861 0.215543
vt 0.276366 0.280733
vt 0.301579 0.020493
vt 0.301845 0.085240
vt 0.302303 0.150043
vt 0.303344 0.215486
vt 0.301306 0.287446
vt 0.001953 0.002822
vt 0.005367 0.086489
vt 0.005332 0.084903
vt 0.003782 0.151000
vt 0.003854 0.215938
vt 0.003553 0.281087
vt 0.330487 0.214062
vt 0.326431 0.294094
vt 0.329240 0.149674
vt 0.328796 0.085084
vt 0.328536 0.020385
vt 0.321622 0.329510
vt 0.328968 0.358537
s 1
usemtl Post_it_note
f 54/1/1 49/2/2 4/3/3 10/4/4
f 56/5/5 50/6/6 14/7/7 43/8/8
f 50/6/6 51/9/9 13/10/10 14/7/7
f 51/9/9 52/11/11 12/12/12 13/10/10
f 52/11/11 53/13/13 11/14/14 12/12/12
f 53/13/13 54/1/1 10/4/4 11/14/14
f 8/15/15 9/16/16 39/17/17 35/18/18
f 35/18/18 39/17/17 40/19/19 36/20/20
f 36/20/20 40/19/19 41/21/21 37/22/22
f 37/22/22 41/21/21 42/23/23 38/24/24
f 7/25/25 8/15/15 35/18/18 31/26/25
f 31/26/25 35/18/18 36/20/20 32/27/25
f 32/27/25 36/20/20 37/22/22 33/28/26
f 33/28/26 37/22/22 38/24/24 34/29/27
f 6/30/25 7/25/25 31/26/25 27/31/25
f 27/31/25 31/26/25 32/27/25 28/32/25
f 28/32/25 32/27/25 33/28/26 29/33/28
f 29/33/28 33/28/26 34/29/27 30/34/29
f 5/35/25 6/30/25 27/31/25 23/36/25
f 23/36/25 27/31/25 28/32/25 24/37/30
f 24/37/30 28/32/25 29/33/28 25/38/31
f 25/38/31 29/33/28 30/34/29 26/39/32
f 44/40/25 5/35/25 23/36/25 45/41/25
f 45/41/25 23/36/25 24/37/30 46/42/33
f 46/42/33 24/37/30 25/38/31 47/43/34
f 47/43/34 25/38/31 26/39/32 48/44/35
f 9/16/16 2/45/36 19/46/37 39/17/17
f 39/17/17 19/47/37 20/48/38 40/19/19
f 40/19/19 20/48/38 21/49/39 41/21/21
f 41/21/21 21/49/39 22/50/40 42/23/23
f 16/51/41 47/43/34 48/44/35 15/52/42
f 17/53/43 46/42/33 47/43/34 16/51/41
f 18/54/25 45/41/25 46/42/33 17/53/43
f 1/55/25 44/40/25 45/41/25 18/54/25
f 55/56/44 56/5/5 43/8/8 3/57/45
f 15/52/42 48/44/35 56/5/5 55/56/44
f 38/24/24 42/23/23 54/1/1 53/13/13
f 34/29/27 38/24/24 53/13/13 52/11/11
f 30/34/29 34/29/27 52/11/11 51/9/9
f 26/39/32 30/34/29 51/9/9 50/6/6
f 48/44/35 26/39/32 50/6/6 56/5/5
f 42/23/23 22/50/40 49/2/2 54/1/1
