# Blender v3.6.5 OBJ File: ''
# www.blender.org
mtllib Pick.mtl
o Second_hand_Mesh
v 0.000379 -0.001454 -0.003744
v 0.000748 -0.001268 -0.003744
v 0.001042 -0.000976 -0.003744
v 0.001231 -0.000608 -0.003744
v 0.001298 -0.000200 -0.003744
v 0.001235 0.000209 -0.003744
v 0.001048 0.000579 -0.003744
v 0.000757 0.000873 -0.003744
v 0.000388 0.001062 -0.003744
v -0.000020 0.001128 -0.003744
v -0.000429 0.001065 -0.003744
v -0.000799 0.000879 -0.003744
v -0.001092 0.000587 -0.003744
v -0.001282 0.000219 -0.003744
v -0.001348 -0.000189 -0.003744
v -0.001285 -0.000598 -0.003744
v -0.001098 -0.000968 -0.003744
v -0.000807 -0.001262 -0.003744
v -0.000439 -0.001451 -0.003744
v -0.000030 -0.001517 -0.003744
v 0.000748 -0.001268 -0.003058
v 0.000379 -0.001454 -0.003058
v 0.001042 -0.000976 -0.003058
v 0.001231 -0.000608 -0.003058
v 0.001298 -0.000200 -0.003058
v 0.001235 0.000209 -0.003058
v 0.001048 0.000579 -0.003058
v 0.000757 0.000873 -0.003058
v 0.000388 0.001062 -0.003058
v -0.000020 0.001128 -0.003058
v -0.000429 0.001065 -0.003058
v -0.000799 0.000879 -0.003058
v -0.001092 0.000587 -0.003058
v -0.001282 0.000219 -0.003058
v -0.001348 -0.000189 -0.003058
v -0.001285 -0.000598 -0.003058
v -0.001098 -0.000968 -0.003058
v -0.000807 -0.001262 -0.003058
v -0.000439 -0.001451 -0.003058
v -0.000030 -0.001517 -0.003058
v 0.000286 -0.001164 -0.003058
v 0.000570 -0.001020 -0.003058
v 0.000796 -0.000796 -0.003058
v 0.000942 -0.000513 -0.003058
v 0.000993 -0.000198 -0.003058
v 0.000944 0.000116 -0.003058
v 0.000801 0.000401 -0.003058
v 0.000576 0.000627 -0.003058
v 0.000293 0.000772 -0.003058
v -0.000021 0.000823 -0.003058
v -0.000336 0.000775 -0.003058
v -0.000620 0.000631 -0.003058
v -0.000846 0.000407 -0.003058
v -0.000992 0.000124 -0.003058
v -0.001043 -0.000191 -0.003058
v -0.000994 -0.000505 -0.003058
v -0.000851 -0.000790 -0.003058
v -0.000627 -0.001016 -0.003058
v -0.000343 -0.001161 -0.003058
v -0.000029 -0.001212 -0.003058
v 0.000286 -0.001164 -0.002853
v 0.000570 -0.001020 -0.002853
v 0.000796 -0.000796 -0.002853
v 0.000942 -0.000513 -0.002853
v 0.000993 -0.000198 -0.002853
v 0.000944 0.000116 -0.002853
v 0.000801 0.000401 -0.002853
v 0.000576 0.000627 -0.002853
v 0.000293 0.000772 -0.002853
v -0.000021 0.000823 -0.002853
v -0.000336 0.000775 -0.002853
v -0.000620 0.000631 -0.002853
v -0.000846 0.000407 -0.002853
v -0.000992 0.000124 -0.002853
v -0.001043 -0.000191 -0.002853
v -0.000994 -0.000505 -0.002853
v -0.000851 -0.000790 -0.002853
v -0.000627 -0.001016 -0.002853
v -0.000343 -0.001161 -0.002853
v -0.000029 -0.001212 -0.002853
v -0.000025 -0.000194 -0.002853
v 0.000307 -0.001231 -0.003744
v 0.000611 -0.001078 -0.003744
v 0.000853 -0.000838 -0.003744
v 0.001009 -0.000535 -0.003744
v 0.001064 -0.000199 -0.003744
v 0.001012 0.000138 -0.003744
v 0.000858 0.000442 -0.003744
v 0.000618 0.000684 -0.003744
v 0.000315 0.000840 -0.003744
v -0.000021 0.000894 -0.003744
v -0.000358 0.000842 -0.003744
v -0.000662 0.000689 -0.003744
v -0.000904 0.000449 -0.003744
v -0.001059 0.000146 -0.003744
v -0.001114 -0.000190 -0.003744
v -0.001062 -0.000527 -0.003744
v -0.000908 -0.000831 -0.003744
v -0.000669 -0.001073 -0.003744
v -0.000366 -0.001229 -0.003744
v -0.000029 -0.001283 -0.003744
v 0.000307 -0.001231 -0.003509
v 0.000611 -0.001078 -0.003509
v -0.000025 -0.000194 -0.003509
v 0.000853 -0.000838 -0.003509
v 0.001009 -0.000535 -0.003509
v 0.001064 -0.000199 -0.003509
v 0.001012 0.000138 -0.003509
v 0.000858 0.000442 -0.003509
v 0.000618 0.000684 -0.003509
v 0.000315 0.000840 -0.003509
v -0.000021 0.000894 -0.003509
v -0.000358 0.000842 -0.003509
v -0.000662 0.000689 -0.003509
v -0.000904 0.000449 -0.003509
v -0.001059 0.000146 -0.003509
v -0.001114 -0.000190 -0.003509
v -0.001062 -0.000527 -0.003509
v -0.000908 -0.000831 -0.003509
v -0.000669 -0.001073 -0.003509
v -0.000366 -0.001229 -0.003509
v -0.000029 -0.001283 -0.003509
v -0.004132 0.001107 -0.003744
v -0.004323 0.000498 -0.003744
v -0.004323 0.000498 -0.003058
v -0.004132 0.001107 -0.003058
v -0.004390 -0.000178 -0.003744
v -0.004390 -0.000178 -0.003058
v -0.004328 -0.000854 -0.003744
v -0.004328 -0.000854 -0.003058
v -0.004142 -0.001464 -0.003744
v -0.004142 -0.001464 -0.003058
v 0.015166 -0.000646 -0.003558
v 0.015355 -0.000461 -0.003558
v 0.015355 -0.000461 -0.003245
v 0.015166 -0.000646 -0.003245
v 0.015421 -0.000254 -0.003558
v 0.015421 -0.000254 -0.003245
v 0.015357 -0.000047 -0.003558
v 0.015357 -0.000047 -0.003245
v 0.015170 0.000140 -0.003558
v 0.015170 0.000140 -0.003245
vt 0.922522 0.282703
vt 0.935949 0.275862
vt 0.950835 0.321672
vt 0.911866 0.293359
vt 0.905024 0.306787
vt 0.902667 0.321672
vt 0.905024 0.336556
vt 0.911866 0.349984
vt 0.922522 0.360641
vt 0.935950 0.367482
vt 0.950835 0.369840
vt 0.965719 0.367482
vt 0.979147 0.360640
vt 0.989803 0.349984
vt 0.996645 0.336557
vt 0.999002 0.321672
vt 0.996645 0.306787
vt 0.989803 0.293360
vt 0.979147 0.282704
vt 0.965719 0.275862
vt 0.950834 0.273504
vt 0.246759 0.663359
vt 0.246759 0.647044
vt 0.517310 0.647044
vt 0.517310 0.663359
vt 0.246759 0.634096
vt 0.517310 0.634096
vt 0.320444 0.009271
vt 0.320444 0.000957
vt 0.443625 0.000957
vt 0.443625 0.009271
vt 0.933540 0.124138
vt 0.924392 0.124138
vt 0.924392 0.000957
vt 0.933540 0.000957
vt 0.915244 0.124138
vt 0.915244 0.000957
vt 0.595244 0.863379
vt 0.595244 0.855065
vt 0.718425 0.855065
vt 0.718425 0.863379
vt 0.521559 0.230240
vt 0.521559 0.217292
vt 0.792111 0.217292
vt 0.792111 0.230240
vt 0.521559 0.200976
vt 0.792111 0.200976
vt 0.521559 0.182890
vt 0.792111 0.182890
vt 0.521559 0.164804
vt 0.792111 0.164804
vt 0.521559 0.148488
vt 0.792111 0.148488
vt 0.521559 0.135540
vt 0.792111 0.135540
vt 0.796359 0.000957
vt 0.823330 0.000957
vt 0.823330 0.271508
vt 0.796359 0.271508
vt 0.853228 0.000957
vt 0.853228 0.271508
vt 0.883126 0.000957
vt 0.883126 0.271508
vt 0.910097 0.000957
vt 0.910097 0.271508
vt 0.246759 0.728796
vt 0.246759 0.715848
vt 0.517310 0.715848
vt 0.517310 0.728796
vt 0.246759 0.699532
vt 0.517310 0.699532
vt 0.246759 0.681445
vt 0.517310 0.681445
vt 0.115190 0.212155
vt 0.106877 0.228470
vt 0.095957 0.220537
vt 0.102353 0.207984
vt 0.093929 0.241418
vt 0.085995 0.230499
vt 0.077613 0.249732
vt 0.073442 0.236896
vt 0.059526 0.252596
vt 0.059526 0.239099
vt 0.041440 0.249732
vt 0.045611 0.236896
vt 0.025124 0.241418
vt 0.033058 0.230499
vt 0.012176 0.228470
vt 0.023095 0.220536
vt 0.003863 0.212154
vt 0.016699 0.207983
vt 0.000998 0.194068
vt 0.014495 0.194068
vt 0.003863 0.175982
vt 0.016699 0.180152
vt 0.012176 0.159666
vt 0.023095 0.167599
vt 0.025124 0.146717
vt 0.033058 0.157637
vt 0.041440 0.138404
vt 0.045611 0.151241
vt 0.059526 0.135540
vt 0.059526 0.149037
vt 0.077613 0.138404
vt 0.073442 0.151241
vt 0.093928 0.146717
vt 0.085995 0.157637
vt 0.106876 0.159666
vt 0.095957 0.167599
vt 0.115190 0.175982
vt 0.102353 0.180152
vt 0.118054 0.194069
vt 0.104557 0.194069
vt 0.496128 0.865375
vt 0.508681 0.865375
vt 0.508681 0.946451
vt 0.496128 0.946451
vt 0.518643 0.865375
vt 0.518643 0.946451
vt 0.441642 0.946452
vt 0.429089 0.946452
vt 0.429089 0.865375
vt 0.441642 0.865375
vt 0.415173 0.946452
vt 0.415173 0.865375
vt 0.401258 0.946452
vt 0.401258 0.865375
vt 0.388705 0.946452
vt 0.388705 0.865455
vt 0.311703 0.865375
vt 0.321665 0.865375
vt 0.321665 0.946371
vt 0.311703 0.946371
vt 0.334219 0.865375
vt 0.334219 0.946451
vt 0.348134 0.865375
vt 0.348134 0.946451
vt 0.362050 0.865375
vt 0.362050 0.946451
vt 0.374603 0.865375
vt 0.374603 0.946451
vt 0.384565 0.865375
vt 0.384565 0.946451
vt 0.254626 0.865375
vt 0.267179 0.865375
vt 0.267179 0.946451
vt 0.254626 0.946451
vt 0.281095 0.865375
vt 0.281095 0.946451
vt 0.295011 0.865375
vt 0.295011 0.946451
vt 0.307564 0.865375
vt 0.307564 0.946371
vt 0.445782 0.865375
vt 0.455744 0.865375
vt 0.455744 0.946371
vt 0.445782 0.946371
vt 0.468297 0.865375
vt 0.468297 0.946451
vt 0.482213 0.865375
vt 0.482213 0.946451
vt 0.567815 0.865375
vt 0.567814 0.910406
vt 0.553899 0.867579
vt 0.522783 0.910406
vt 0.524987 0.924321
vt 0.581730 0.867579
vt 0.610642 0.924321
vt 0.612845 0.910406
vt 0.604245 0.936874
vt 0.524987 0.896490
vt 0.610642 0.896490
vt 0.531383 0.936874
vt 0.604245 0.883937
vt 0.541345 0.946837
vt 0.594283 0.873975
vt 0.553899 0.953233
vt 0.567814 0.955437
vt 0.594283 0.946837
vt 0.531383 0.883937
vt 0.581729 0.953233
vt 0.541345 0.873975
vt 0.229855 0.649908
vt 0.238168 0.666223
vt 0.228314 0.669425
vt 0.221473 0.655997
vt 0.216907 0.636960
vt 0.210817 0.645342
vt 0.200591 0.628646
vt 0.197389 0.638499
vt 0.182504 0.625782
vt 0.182504 0.636142
vt 0.164418 0.628646
vt 0.167620 0.638499
vt 0.148102 0.636960
vt 0.154192 0.645341
vt 0.135154 0.649908
vt 0.143536 0.655998
vt 0.126841 0.666224
vt 0.136694 0.669425
vt 0.123976 0.684310
vt 0.134336 0.684310
vt 0.126841 0.702396
vt 0.136694 0.699195
vt 0.135154 0.718712
vt 0.143536 0.712622
vt 0.148102 0.731660
vt 0.154192 0.723279
vt 0.164418 0.739974
vt 0.167619 0.730120
vt 0.182504 0.742838
vt 0.182504 0.732477
vt 0.200591 0.739973
vt 0.197389 0.730120
vt 0.216906 0.731660
vt 0.210816 0.723279
vt 0.229854 0.718712
vt 0.221472 0.712623
vt 0.238168 0.702396
vt 0.228314 0.699195
vt 0.241032 0.684309
vt 0.230672 0.684309
vt 0.831246 0.273504
vt 0.844673 0.273504
vt 0.844673 0.366250
vt 0.831246 0.366250
vt 0.820590 0.273504
vt 0.820590 0.366250
vt 0.803023 0.865375
vt 0.816450 0.865375
vt 0.816450 0.958120
vt 0.803023 0.958120
vt 0.788138 0.865375
vt 0.788138 0.958120
vt 0.773254 0.865375
vt 0.773254 0.958120
vt 0.759826 0.865375
vt 0.759826 0.958120
vt 0.745030 0.865375
vt 0.755686 0.865375
vt 0.755686 0.958120
vt 0.745030 0.958120
vt 0.731602 0.865375
vt 0.731602 0.958120
vt 0.716717 0.865375
vt 0.716717 0.958120
vt 0.701833 0.865375
vt 0.701833 0.958120
vt 0.688406 0.865375
vt 0.688406 0.958120
vt 0.677749 0.865375
vt 0.677749 0.958120
vt 0.630412 0.958120
vt 0.616985 0.958120
vt 0.616985 0.865375
vt 0.630412 0.865375
vt 0.645297 0.958120
vt 0.645297 0.865375
vt 0.660182 0.958120
vt 0.660182 0.865375
vt 0.673609 0.958120
vt 0.673609 0.865375
vt 0.887871 0.273504
vt 0.898527 0.273504
vt 0.898527 0.366250
vt 0.887871 0.366250
vt 0.874443 0.273504
vt 0.874443 0.366250
vt 0.859558 0.273504
vt 0.859558 0.366250
vt 0.152606 0.874556
vt 0.125635 0.866243
vt 0.002658 0.012135
vt 0.029628 0.003822
vt 0.521559 0.000957
vt 0.792111 0.000957
vt 0.182504 0.877421
vt 0.059526 0.000957
vt 0.212402 0.874556
vt 0.089424 0.003822
vt 0.239373 0.866243
vt 0.517310 0.863379
vt 0.246759 0.863379
vt 0.116395 0.012135
vt 0.191652 0.003821
vt 0.199904 0.012135
vt 0.076926 0.866243
vt 0.068674 0.874557
vt 0.182504 0.000957
vt 0.059526 0.877421
vt 0.173357 0.003821
vt 0.050379 0.874557
vt 0.165105 0.012135
vt 0.042127 0.866243
vn -0.0000 0.0000 -1.0000
vn 0.4506 -0.8928 -0.0000
vn 0.7044 -0.7098 -0.0000
vn 0.7017 -0.7124 -0.0000
vn 0.9532 -0.3025 -0.0000
vn 0.9555 0.2951 -0.0000
vn 0.7072 0.7070 -0.0000
vn 0.7098 0.7044 -0.0000
vn 0.4574 0.8892 -0.0000
vn 0.1602 0.9871 -0.0000
vn -0.1526 0.9883 0.0000
vn -0.4506 0.8927 0.0000
vn -0.7044 0.7098 0.0000
vn -0.9545 0.2982 0.0000
vn -0.9951 0.0992 0.0000
vn -0.9958 -0.0915 0.0000
vn -0.9568 -0.2909 0.0000
vn -0.7098 -0.7044 0.0000
vn -0.4574 -0.8892 0.0000
vn -0.1602 -0.9871 0.0000
vn 0.1526 -0.9883 -0.0000
vn 0.0000 -0.0000 1.0000
vn 0.0044 -0.0009 1.0000
vn 0.0004 -0.0000 1.0000
vn 0.4505 -0.8928 -0.0000
vn 0.8892 -0.4575 -0.0000
vn 0.9871 -0.1602 -0.0000
vn 0.9883 0.1526 -0.0000
vn 0.8927 0.4506 -0.0000
vn -0.4505 0.8928 0.0000
vn -0.8892 0.4574 0.0000
vn -0.9871 0.1602 0.0000
vn -0.9883 -0.1526 0.0000
vn -0.8928 -0.4505 0.0000
vn -0.0003 0.0001 1.0000
vn -0.0001 0.0003 1.0000
vn -0.0000 0.0004 1.0000
vn 0.0001 -0.0003 1.0000
vn 0.0000 -0.0004 1.0000
vn 0.0003 -0.0001 1.0000
vn -0.0004 0.0000 1.0000
vn 0.0003 -0.0000 -1.0000
vn 0.0017 -0.0016 -1.0000
vn -0.8892 0.4575 0.0000
vn -0.8927 -0.4506 0.0000
vn 0.4506 -0.8927 -0.0000
vn 0.8892 -0.4574 -0.0000
vn 0.8928 0.4505 -0.0000
vn 0.4574 0.8893 -0.0000
vn 0.1685 0.9857 -0.0000
vn 0.1609 -0.9870 -0.0000
vn 0.0134 -0.0091 -0.9999
vn 0.0132 -0.0034 -0.9999
vn 0.0133 -0.0081 -0.9999
vn 0.0134 -0.0091 0.9999
vn 0.0233 -0.9997 -0.0000
vn 0.0132 -0.0001 -0.9999
vn 0.0132 -0.0028 0.9999
vn 0.0132 -0.0001 0.9999
vn 0.0134 0.0080 -0.9999
vn 0.0133 0.0033 0.9999
vn 0.0134 0.0080 0.9999
vn 0.0134 0.0090 -0.9999
vn 0.0311 0.9995 -0.0000
vn 0.0135 0.0090 0.9999
usemtl lambert1
s 1
f 103/1/1 102/2/1 104/3/1
f 105/4/1 103/1/1 104/3/1
f 106/5/1 105/4/1 104/3/1
f 107/6/1 106/5/1 104/3/1
f 108/7/1 107/6/1 104/3/1
f 109/8/1 108/7/1 104/3/1
f 110/9/1 109/8/1 104/3/1
f 111/10/1 110/9/1 104/3/1
f 112/11/1 111/10/1 104/3/1
f 113/12/1 112/11/1 104/3/1
f 114/13/1 113/12/1 104/3/1
f 115/14/1 114/13/1 104/3/1
f 116/15/1 115/14/1 104/3/1
f 117/16/1 116/15/1 104/3/1
f 118/17/1 117/16/1 104/3/1
f 119/18/1 118/17/1 104/3/1
f 120/19/1 119/18/1 104/3/1
f 121/20/1 120/19/1 104/3/1
f 122/21/1 121/20/1 104/3/1
f 102/2/1 122/21/1 104/3/1
f 1/22/2 2/23/2 21/24/2 22/25/2
f 2/23/3 3/26/3 23/27/3 21/24/3
f 133/28/4 134/29/4 135/30/4 136/31/4
f 134/32/5 137/33/5 138/34/5 135/35/5
f 137/33/6 139/36/6 140/37/6 138/34/6
f 139/38/7 141/39/7 142/40/7 140/41/7
f 7/42/8 8/43/8 28/44/8 27/45/8
f 8/43/9 9/46/9 29/47/9 28/44/9
f 9/46/10 10/48/10 30/49/10 29/47/10
f 10/48/11 11/50/11 31/51/11 30/49/11
f 11/50/12 12/52/12 32/53/12 31/51/12
f 12/52/13 13/54/13 33/55/13 32/53/13
f 123/56/14 124/57/14 125/58/14 126/59/14
f 124/57/15 127/60/15 128/61/15 125/58/15
f 127/60/16 129/62/16 130/63/16 128/61/16
f 129/62/17 131/64/17 132/65/17 130/63/17
f 17/66/18 18/67/18 38/68/18 37/69/18
f 18/67/19 19/70/19 39/71/19 38/68/19
f 19/70/20 20/72/20 40/73/20 39/71/20
f 20/72/21 1/22/21 22/25/21 40/73/21
f 22/74/22 21/75/22 42/76/22 41/77/22
f 21/75/22 23/78/22 43/79/22 42/76/22
f 23/78/22 24/80/23 44/81/22 43/79/22
f 24/80/23 25/82/24 45/83/22 44/81/22
f 25/82/24 26/84/22 46/85/22 45/83/22
f 26/84/22 27/86/22 47/87/22 46/85/22
f 27/86/22 28/88/22 48/89/22 47/87/22
f 28/88/22 29/90/22 49/91/22 48/89/22
f 29/90/22 30/92/22 50/93/22 49/91/22
f 30/92/22 31/94/22 51/95/22 50/93/22
f 31/94/22 32/96/22 52/97/22 51/95/22
f 32/96/22 33/98/22 53/99/22 52/97/22
f 33/98/22 34/100/22 54/101/22 53/99/22
f 34/100/22 35/102/22 55/103/22 54/101/22
f 35/102/22 36/104/22 56/105/22 55/103/22
f 36/104/22 37/106/22 57/107/22 56/105/22
f 37/106/22 38/108/22 58/109/22 57/107/22
f 38/108/22 39/110/22 59/111/22 58/109/22
f 39/110/22 40/112/22 60/113/22 59/111/22
f 40/112/22 22/74/22 41/77/22 60/113/22
f 41/114/25 42/115/25 62/116/25 61/117/25
f 42/115/3 43/118/3 63/119/3 62/116/3
f 43/120/26 44/121/26 64/122/26 63/123/26
f 44/121/27 45/124/27 65/125/27 64/122/27
f 45/124/28 46/126/28 66/127/28 65/125/28
f 46/126/29 47/128/29 67/129/29 66/127/29
f 47/130/8 48/131/8 68/132/8 67/133/8
f 48/131/9 49/134/9 69/135/9 68/132/9
f 49/134/10 50/136/10 70/137/10 69/135/10
f 50/136/11 51/138/11 71/139/11 70/137/11
f 51/138/30 52/140/30 72/141/30 71/139/30
f 52/140/13 53/142/13 73/143/13 72/141/13
f 53/144/31 54/145/31 74/146/31 73/147/31
f 54/145/32 55/148/32 75/149/32 74/146/32
f 55/148/33 56/150/33 76/151/33 75/149/33
f 56/150/34 57/152/34 77/153/34 76/151/34
f 57/154/18 58/155/18 78/156/18 77/157/18
f 58/155/19 59/158/19 79/159/19 78/156/19
f 59/158/20 60/160/20 80/161/20 79/159/20
f 60/160/21 41/114/21 61/117/21 80/161/21
f 80/162/22 81/163/22 79/164/35
f 75/165/22 81/163/22 74/166/22
f 61/167/22 81/163/22 80/162/22
f 66/168/36 81/163/22 65/169/22
f 67/170/37 81/163/22 66/168/36
f 76/171/38 81/163/22 75/165/22
f 81/163/22 64/172/22 65/169/22
f 74/166/22 81/163/22 73/173/22
f 81/163/22 63/174/22 64/172/22
f 73/173/22 81/163/22 72/175/22
f 62/176/22 63/174/22 81/163/22
f 72/175/22 81/163/22 71/177/22
f 62/176/22 81/163/22 61/167/22
f 71/177/22 81/163/22 70/178/22
f 68/179/24 81/163/22 67/170/37
f 77/180/39 81/163/22 76/171/38
f 69/181/40 81/163/22 68/179/24
f 78/182/41 81/163/22 77/180/39
f 70/178/22 81/163/22 69/181/40
f 79/164/35 81/163/22 78/182/41
f 2/183/1 1/184/1 82/185/1 83/186/1
f 3/187/1 2/183/1 83/186/1 84/188/1
f 4/189/1 3/187/1 84/188/1 85/190/1
f 5/191/42 4/189/1 85/190/1 86/192/1
f 6/193/43 5/191/42 86/192/1 87/194/1
f 7/195/1 6/193/43 87/194/1 88/196/1
f 8/197/1 7/195/1 88/196/1 89/198/1
f 9/199/1 8/197/1 89/198/1 90/200/1
f 10/201/1 9/199/1 90/200/1 91/202/1
f 11/203/1 10/201/1 91/202/1 92/204/1
f 12/205/1 11/203/1 92/204/1 93/206/1
f 13/207/1 12/205/1 93/206/1 94/208/1
f 14/209/1 13/207/1 94/208/1 95/210/1
f 15/211/1 14/209/1 95/210/1 96/212/1
f 16/213/1 15/211/1 96/212/1 97/214/1
f 17/215/1 16/213/1 97/214/1 98/216/1
f 18/217/1 17/215/1 98/216/1 99/218/1
f 19/219/1 18/217/1 99/218/1 100/220/1
f 20/221/1 19/219/1 100/220/1 101/222/1
f 1/184/1 20/221/1 101/222/1 82/185/1
f 83/223/30 82/224/30 102/225/30 103/226/30
f 84/227/13 83/223/13 103/226/13 105/228/13
f 85/229/44 84/230/44 105/231/44 106/232/44
f 86/233/32 85/229/32 106/232/32 107/234/32
f 87/235/33 86/233/33 107/234/33 108/236/33
f 88/237/45 87/235/45 108/236/45 109/238/45
f 89/239/18 88/240/18 109/241/18 110/242/18
f 90/243/19 89/239/19 110/242/19 111/244/19
f 91/245/20 90/243/20 111/244/20 112/246/20
f 92/247/21 91/245/21 112/246/21 113/248/21
f 93/249/46 92/247/46 113/248/46 114/250/46
f 94/251/3 93/249/3 114/250/3 115/252/3
f 95/253/47 94/254/47 115/255/47 116/256/47
f 96/257/27 95/253/27 116/256/27 117/258/27
f 97/259/28 96/257/28 117/258/28 118/260/28
f 98/261/48 97/259/48 118/260/48 119/262/48
f 99/263/8 98/264/8 119/265/8 120/266/8
f 100/267/49 99/263/49 120/266/49 121/268/49
f 101/269/10 100/267/10 121/268/10 122/270/10
f 82/224/11 101/269/11 122/270/11 102/225/11
f 13/207/1 14/209/1 124/271/1 123/272/1
f 34/100/22 33/98/22 126/273/22 125/274/22
f 33/55/50 13/54/50 123/275/50 126/276/50
f 14/209/1 15/211/1 127/277/1 124/271/1
f 35/102/22 34/100/22 125/274/22 128/278/22
f 15/211/1 16/213/1 129/279/1 127/277/1
f 36/104/22 35/102/22 128/278/22 130/280/22
f 16/213/1 17/215/1 131/281/1 129/279/1
f 17/66/51 37/69/51 132/282/51 131/283/51
f 37/106/22 36/104/22 130/280/22 132/284/22
f 3/187/52 4/189/53 134/285/54 133/286/52
f 24/80/55 23/78/55 136/287/55 135/288/55
f 23/27/56 3/26/56 133/28/56 136/31/56
f 4/189/53 5/191/42 137/289/57 134/285/54
f 25/82/24 24/80/23 135/288/58 138/290/59
f 5/191/42 6/193/43 139/291/60 137/289/57
f 26/84/61 25/82/24 138/290/59 140/292/62
f 6/193/43 7/195/63 141/293/63 139/291/60
f 7/42/64 27/45/64 142/40/64 141/39/64
f 27/86/65 26/84/61 140/292/62 142/294/65
